<svg xmlns="http://www.w3.org/2000/svg" width="1021pt" height="603pt" viewBox="0 0 1021 603"><g id="#ffffffff"><path fill="#ffffff" opacity="1.00" d=" M 0.00 0.00 L 119.51 0.00 C 138.39 1.91 157.87 7.65 171.84 21.09 C 184.04 32.35 190.99 48.73 191.70 65.23 C 192.93 82.45 188.09 100.55 176.60 113.73 C 161.58 131.62 137.72 139.37 115.01 140.49 C 96.84 140.52 78.67 140.49 60.50 140.50 C 60.51 166.33 60.49 192.16 60.51 217.99 C 40.34 218.01 20.17 217.99 0.00 218.00 L 0.00 0.00 M 60.50 49.50 C 60.50 63.33 60.50 77.17 60.50 91.00 C 76.03 90.99 91.56 91.02 107.08 90.99 C 115.42 90.63 124.66 87.57 128.80 79.76 C 132.34 72.63 132.07 63.16 126.59 57.04 C 121.91 51.92 114.79 49.72 108.01 49.49 C 92.18 49.51 76.34 49.50 60.50 49.50 Z"></path><path fill="#ffffff" opacity="1.00" d=" M 210.00 0.00 L 269.50 0.00 C 269.41 26.80 269.68 53.60 269.36 80.39 C 272.54 72.75 278.24 66.24 285.53 62.29 C 298.21 55.27 313.60 55.25 327.42 58.40 C 341.10 61.55 353.13 71.05 359.16 83.75 C 366.03 97.04 366.82 112.32 367.01 126.98 C 366.98 157.32 367.01 187.66 367.00 218.00 C 347.17 218.00 327.33 218.00 307.50 218.00 C 307.51 189.33 307.48 160.66 307.52 131.99 C 307.36 126.08 307.47 119.76 304.28 114.53 C 298.15 103.44 279.72 103.07 272.99 113.74 C 270.11 117.91 269.70 123.13 269.50 128.04 C 269.51 158.02 269.49 188.01 269.51 217.99 C 249.67 218.01 229.84 217.99 210.00 218.00 C 210.00 145.33 210.00 72.67 210.00 0.00 Z"></path><path fill="#ffffff" opacity="1.00" d=" M 480.00 0.00 L 539.50 0.00 C 539.51 72.66 539.49 145.33 539.51 217.99 C 519.67 218.01 499.84 218.00 480.00 218.00 C 480.00 145.33 480.00 72.67 480.00 0.00 Z"></path><path fill="#ffffff" opacity="1.00" d=" M 393.50 8.50 C 413.50 8.50 433.50 8.50 453.50 8.50 C 453.50 24.50 453.50 40.50 453.50 56.50 C 433.50 56.50 413.50 56.50 393.50 56.50 C 393.50 40.50 393.50 24.50 393.50 8.50 Z"></path><path fill="#ffffff" opacity="1.00" d=" M 393.49 69.02 C 413.32 68.98 433.16 69.01 453.00 69.00 C 453.00 118.67 453.00 168.33 453.00 218.00 C 433.16 217.99 413.32 218.02 393.49 217.98 C 393.51 168.33 393.51 118.67 393.49 69.02 Z"></path><path fill="#ffffff" opacity="1.00" d=" M 774.51 142.15 C 778.53 138.34 783.11 135.15 787.09 131.28 C 792.02 137.21 797.84 142.31 803.12 147.92 C 808.13 153.86 813.96 159.02 819.33 164.63 C 826.57 162.25 833.78 159.79 841.02 157.40 C 843.89 156.28 846.83 157.65 849.53 158.61 C 857.01 161.51 864.55 164.28 871.93 167.44 C 876.17 162.85 879.97 156.75 886.50 155.39 C 889.08 154.60 891.45 153.29 893.85 152.07 C 910.99 164.01 930.45 171.90 948.49 182.29 C 961.83 189.77 975.27 197.08 988.63 204.54 C 996.43 209.09 1004.63 213.01 1012.21 217.94 C 965.46 218.08 918.70 217.96 871.95 218.00 C 767.22 217.92 662.48 218.15 557.74 217.88 C 562.19 215.24 566.92 213.09 571.42 210.53 C 590.48 201.19 609.25 191.31 628.25 181.86 C 632.04 183.09 635.78 184.47 639.50 185.90 C 642.31 187.14 645.21 188.18 648.12 189.20 C 656.80 185.24 665.60 181.54 674.19 177.40 C 683.16 173.10 692.33 169.25 701.39 165.13 C 703.39 164.37 705.32 163.44 707.34 162.68 C 707.81 162.70 708.74 162.73 709.21 162.75 C 711.86 165.94 715.40 168.23 718.04 171.43 C 718.40 171.84 719.11 172.66 719.46 173.07 C 729.33 166.41 739.10 159.60 748.89 152.81 C 753.25 149.07 759.36 151.31 764.57 150.70 C 767.86 147.83 771.37 145.20 774.51 142.15 Z"></path><path fill="#ffffff" opacity="1.00" d=" M 2.83 259.49 C 25.19 259.67 47.57 259.16 69.91 259.75 C 71.08 270.34 73.18 280.81 74.61 291.38 C 78.68 317.25 82.85 343.11 86.70 369.02 C 97.30 332.55 107.60 295.99 118.07 259.48 C 138.03 259.47 157.99 259.58 177.94 259.43 C 184.24 279.98 189.82 300.77 195.83 321.41 C 200.33 337.37 205.06 353.27 209.41 369.27 C 215.03 332.65 220.74 296.04 226.60 259.47 C 249.00 259.63 271.40 259.29 293.79 259.64 C 282.97 300.63 273.31 341.93 262.87 383.03 C 255.76 411.34 248.85 439.71 241.79 468.04 C 240.69 468.81 239.24 468.37 238.00 468.52 C 219.69 468.48 201.38 468.50 183.07 468.51 C 171.27 424.42 159.86 380.23 148.17 336.11 C 141.02 361.82 134.56 387.73 127.62 413.51 C 122.99 431.88 117.83 450.11 113.33 468.52 C 93.73 468.48 74.12 468.53 54.52 468.49 C 47.23 438.47 39.59 408.53 32.14 378.55 C 22.61 338.81 12.07 299.29 2.83 259.49 Z"></path><path fill="#ffffff" opacity="1.00" d=" M 480.01 259.49 C 500.00 259.50 519.99 259.50 539.98 259.49 C 540.02 275.32 539.99 291.16 540.00 307.00 C 520.00 307.00 500.00 307.00 480.00 307.00 C 480.01 291.16 479.98 275.33 480.01 259.49 Z"></path><path fill="#ffffff" opacity="1.00" d=" M 339.52 314.39 C 349.58 310.10 360.48 307.57 371.42 307.44 C 374.61 306.63 377.97 306.95 381.20 307.33 C 396.18 307.78 411.35 311.58 424.04 319.77 C 437.16 328.01 447.01 340.95 452.46 355.38 C 458.10 369.87 458.96 385.62 458.50 401.00 C 422.48 401.00 386.47 401.00 350.45 401.00 C 350.54 410.31 355.22 419.71 363.22 424.69 C 369.78 428.85 377.97 429.19 385.46 428.19 C 392.99 426.97 400.39 422.55 403.73 415.51 C 421.73 415.54 439.73 415.39 457.73 415.58 C 454.33 431.92 444.61 446.81 431.03 456.50 C 418.46 465.79 402.96 470.56 387.49 471.81 C 370.57 472.82 353.12 471.33 337.42 464.51 C 326.28 459.96 316.45 452.44 308.86 443.13 C 298.59 430.13 293.22 413.69 292.32 397.25 C 291.02 382.16 293.65 366.71 299.90 352.90 C 307.87 335.85 322.10 321.68 339.52 314.39 M 362.24 352.30 C 355.73 356.26 352.07 363.67 350.85 370.99 C 367.76 371.01 384.68 371.00 401.59 371.00 C 401.14 362.31 396.05 353.55 387.75 350.26 C 379.56 347.07 369.72 347.43 362.24 352.30 Z"></path><path fill="#ffffff" opacity="1.00" d=" M 600.11 312.38 C 609.41 309.33 619.16 307.57 628.95 307.42 C 632.84 306.89 636.80 306.74 640.69 307.35 C 658.60 307.89 677.31 311.95 691.67 323.23 C 702.12 331.40 708.54 344.24 708.83 357.49 C 690.65 357.56 672.46 357.42 654.27 357.55 C 652.95 350.71 646.32 346.47 639.83 345.44 C 633.11 344.37 625.55 344.76 619.93 349.02 C 617.25 351.09 615.97 355.20 617.92 358.20 C 619.21 361.07 622.64 361.66 625.37 362.33 C 636.13 363.99 646.89 365.69 657.64 367.37 C 671.74 369.53 686.81 371.45 698.45 380.45 C 707.31 386.74 712.49 397.29 713.50 407.98 C 715.54 422.76 711.24 438.54 701.03 449.58 C 689.18 462.39 671.91 468.69 654.96 471.05 C 646.35 472.44 637.61 471.94 628.93 471.98 C 609.24 470.58 588.53 465.43 573.91 451.39 C 565.13 443.28 560.19 431.76 558.91 420.00 C 577.55 420.00 596.18 420.00 614.82 420.00 C 616.22 424.46 618.80 428.72 623.15 430.83 C 631.66 435.40 642.23 435.54 651.18 432.16 C 655.50 430.54 659.15 425.81 657.67 421.08 C 656.80 417.48 653.43 415.07 649.91 414.49 C 633.43 411.49 616.86 409.00 600.41 405.83 C 590.39 403.43 580.06 399.85 572.83 392.14 C 566.16 385.95 562.62 376.98 561.79 368.04 C 560.19 355.03 563.28 341.09 571.86 330.94 C 579.06 322.00 589.40 316.14 600.11 312.38 Z"></path><path fill="#ffffff" opacity="1.00" d=" M 743.42 336.47 C 760.20 315.48 788.28 305.45 814.59 307.44 C 829.99 307.67 845.46 312.00 858.40 320.45 C 871.93 329.49 882.03 343.33 886.88 358.83 C 891.63 372.34 892.08 386.83 892.00 401.00 C 855.82 400.99 819.64 401.01 783.46 400.99 C 784.26 409.65 787.63 418.83 795.18 423.79 C 802.55 429.21 812.40 429.54 821.03 427.63 C 827.88 426.18 834.02 421.76 837.20 415.47 C 855.13 415.52 873.07 415.51 891.01 415.47 C 888.18 428.94 881.17 441.55 871.06 450.89 C 861.15 460.36 848.37 466.52 835.09 469.60 C 823.76 472.34 811.94 472.51 800.41 471.60 C 787.93 470.73 775.49 467.48 764.46 461.49 C 752.47 455.35 742.47 445.57 735.91 433.83 C 728.44 420.58 725.06 405.15 725.50 390.00 C 724.94 370.81 731.34 351.42 743.42 336.47 M 800.61 349.73 C 791.48 352.87 785.49 361.74 783.94 371.02 C 800.99 370.98 818.04 371.00 835.08 371.01 C 834.17 365.88 832.88 360.61 829.44 356.54 C 822.70 348.23 810.37 346.47 800.61 349.73 Z"></path><path fill="#ffffff" opacity="1.00" d=" M 987.27 314.20 C 997.24 308.00 1009.81 307.28 1021.00 310.13 L 1021.00 368.61 C 1011.75 366.87 1001.93 366.74 992.87 369.53 C 983.56 372.30 975.89 380.06 973.43 389.49 C 970.68 397.38 971.67 405.82 971.50 414.00 C 971.50 432.17 971.50 450.33 971.50 468.50 C 951.67 468.51 931.84 468.49 912.01 468.51 C 911.99 416.00 912.00 363.50 912.00 311.00 C 931.00 311.00 950.00 311.00 969.00 311.00 C 969.04 321.48 968.90 331.96 969.09 342.44 C 971.36 331.22 977.35 320.36 987.27 314.20 Z"></path><path fill="#ffffff" opacity="1.00" d=" M 480.00 319.51 C 499.83 319.48 519.67 319.50 539.50 319.50 C 539.50 369.17 539.50 418.83 539.50 468.50 C 519.67 468.51 499.84 468.49 480.01 468.51 C 479.98 418.84 480.01 369.18 480.00 319.51 Z"></path><path fill="#ffffff" opacity="1.00" d=" M 110.98 509.01 C 123.04 506.96 135.88 510.75 145.00 518.88 C 163.62 535.16 166.35 565.83 151.44 585.42 C 144.43 595.57 132.73 601.93 120.51 603.00 L 113.58 603.00 C 104.35 601.79 95.17 598.18 88.62 591.39 C 78.80 582.47 73.82 569.14 73.48 556.05 C 73.61 544.01 77.78 531.89 85.80 522.82 C 92.21 515.45 101.25 510.25 110.98 509.01 M 111.57 518.64 C 105.99 519.83 100.55 522.43 96.61 526.63 C 82.45 539.40 80.29 562.62 90.95 578.24 C 96.89 587.65 107.68 593.98 118.94 593.48 C 125.10 592.88 131.20 590.77 136.06 586.87 C 144.87 580.03 149.61 568.96 150.49 558.03 C 151.02 545.42 145.90 532.25 135.81 524.37 C 129.07 519.10 119.95 516.89 111.57 518.64 Z"></path><path fill="#ffffff" opacity="1.00" d=" M 409.55 516.67 C 419.83 508.92 433.79 506.53 446.13 510.08 C 458.43 513.46 468.47 523.05 473.65 534.55 C 482.13 552.92 478.65 576.67 463.90 590.88 C 457.05 598.16 447.31 602.00 437.50 603.00 L 431.46 603.00 C 426.97 602.37 422.47 601.53 418.26 599.80 C 408.14 595.53 400.08 587.09 395.57 577.15 C 385.78 556.98 391.52 530.30 409.55 516.67 M 432.21 518.12 C 417.69 519.34 406.26 531.45 402.82 545.12 C 399.57 556.88 402.03 569.98 409.22 579.82 C 415.98 589.68 428.76 595.40 440.58 592.84 C 449.12 591.20 456.32 585.42 461.03 578.27 C 471.27 562.82 469.48 540.19 456.03 527.17 C 449.98 520.80 440.96 517.34 432.21 518.12 Z"></path><path fill="#ffffff" opacity="1.00" d=" M 880.82 509.03 C 889.67 507.45 898.95 509.20 906.94 513.23 C 919.88 520.09 928.41 533.75 930.51 548.07 C 932.87 563.18 928.06 579.34 917.39 590.37 C 910.33 597.74 900.60 602.06 890.48 603.00 L 883.58 603.00 C 877.82 602.08 872.05 600.72 866.99 597.73 C 855.77 591.23 847.65 579.76 844.95 567.10 C 841.73 553.61 844.49 538.86 852.25 527.38 C 858.87 517.86 869.17 510.56 880.82 509.03 M 881.02 518.87 C 872.00 520.56 864.63 527.15 859.97 534.80 C 856.09 540.99 854.62 548.32 854.15 555.50 C 854.47 563.77 856.54 572.16 861.43 578.96 C 867.59 588.22 878.58 594.33 889.82 593.38 C 896.60 592.62 903.19 589.91 908.16 585.16 C 917.07 576.65 921.52 563.91 920.38 551.70 C 919.18 542.39 915.37 533.11 908.41 526.65 C 901.43 519.63 890.66 516.37 881.02 518.87 Z"></path><path fill="#ffffff" opacity="1.00" d=" M 321.03 510.91 C 331.85 507.05 344.16 507.85 354.61 512.52 C 364.37 516.74 371.38 525.89 374.22 535.99 C 370.57 536.01 366.92 536.00 363.27 536.00 C 360.62 530.05 356.23 524.78 350.52 521.58 C 341.80 517.23 331.04 516.68 322.22 521.10 C 312.68 525.53 306.33 535.08 303.86 545.08 C 301.16 554.97 302.46 565.71 306.91 574.89 C 309.96 581.50 315.28 587.14 321.91 590.24 C 332.86 595.74 347.60 594.24 356.39 585.40 C 362.27 580.21 364.62 572.43 366.04 564.98 C 353.86 565.03 341.68 564.98 329.50 565.01 C 329.50 561.67 329.50 558.34 329.49 555.01 C 345.16 554.98 360.82 555.01 376.49 555.00 C 376.59 560.31 376.66 565.68 375.38 570.88 C 372.69 583.79 363.63 595.56 351.11 600.18 C 347.33 601.74 343.25 602.25 339.25 603.00 L 332.46 603.00 C 327.69 602.34 322.87 601.55 318.48 599.47 C 306.54 594.43 297.71 583.39 294.14 571.07 C 290.23 558.12 291.45 543.61 297.77 531.62 C 302.65 522.20 311.01 514.54 321.03 510.91 Z"></path><path fill="#ffffff" opacity="1.00" d=" M 0.00 510.50 C 20.17 510.50 40.33 510.49 60.50 510.50 C 60.50 513.66 60.50 516.83 60.50 520.00 C 43.83 520.00 27.17 520.00 10.50 520.00 C 10.50 530.33 10.50 540.67 10.50 551.00 C 26.67 551.00 42.83 551.00 59.00 551.00 C 59.00 554.17 59.00 557.34 58.99 560.52 C 42.82 560.48 26.66 560.51 10.50 560.50 C 10.51 574.00 10.49 587.49 10.51 600.99 C 7.01 601.00 3.50 601.00 0.00 601.00 L 0.00 510.50 Z"></path><path fill="#ffffff" opacity="1.00" d=" M 179.03 510.48 C 192.37 510.52 205.71 510.50 219.05 510.49 C 228.81 509.98 239.21 513.80 245.20 521.77 C 250.98 529.39 251.44 540.36 246.71 548.61 C 242.23 556.25 233.80 560.64 225.27 562.08 C 232.07 575.06 239.08 587.94 245.74 601.00 C 241.90 600.99 238.07 601.00 234.24 601.00 C 227.44 588.17 220.77 575.27 213.90 562.47 C 205.93 562.54 197.97 562.48 190.00 562.50 C 190.00 575.33 190.00 588.17 190.00 601.00 C 186.33 601.00 182.67 601.00 179.00 601.00 C 179.02 570.83 178.96 540.65 179.03 510.48 M 190.00 519.50 C 190.00 530.67 190.00 541.83 190.00 553.00 C 200.36 552.99 210.71 553.02 221.07 552.99 C 230.27 552.67 239.51 545.66 239.53 535.90 C 238.96 533.22 238.63 530.39 236.97 528.12 C 232.89 521.99 225.13 519.63 218.09 519.50 C 208.72 519.50 199.36 519.50 190.00 519.50 Z"></path><path fill="#ffffff" opacity="1.00" d=" M 579.02 510.48 C 600.01 510.51 620.99 510.51 641.98 510.48 C 642.00 513.65 642.00 516.82 642.00 520.00 C 624.50 520.00 607.00 520.00 589.50 520.00 C 589.50 529.83 589.50 539.66 589.50 549.50 C 606.33 549.49 623.16 549.51 639.99 549.49 C 640.00 552.66 640.00 555.83 640.00 559.00 C 623.17 559.00 606.33 559.00 589.50 559.00 C 589.50 569.83 589.50 580.66 589.50 591.50 C 607.33 591.49 625.16 591.51 642.99 591.49 C 643.00 594.66 643.00 597.83 643.00 601.00 C 621.67 601.00 600.33 601.00 579.00 601.00 C 579.02 570.83 578.97 540.65 579.02 510.48 Z"></path><path fill="#ffffff" opacity="1.00" d=" M 661.50 510.50 C 675.31 510.48 689.12 510.52 702.93 510.48 C 710.77 510.29 718.62 513.19 724.54 518.32 C 729.41 522.98 732.31 529.52 732.35 536.29 C 732.28 543.81 728.79 551.21 722.73 555.74 C 718.38 559.31 712.93 561.04 707.51 562.15 C 714.70 574.92 721.22 588.10 728.23 601.00 C 724.27 600.99 720.33 601.06 716.39 600.92 C 709.95 587.97 703.03 575.27 696.28 562.49 C 688.18 562.51 680.09 562.49 672.00 562.50 C 672.00 575.33 672.00 588.17 672.00 601.00 C 668.49 601.00 664.99 601.00 661.49 600.98 C 661.51 570.82 661.49 540.66 661.50 510.50 M 672.00 519.50 C 672.00 530.67 672.00 541.83 672.00 553.00 C 681.65 553.01 691.31 552.98 700.96 553.02 C 707.03 553.26 713.40 551.18 717.63 546.70 C 722.47 541.48 723.03 532.82 718.63 527.15 C 714.55 521.77 707.50 519.71 701.01 519.51 C 691.34 519.48 681.67 519.51 672.00 519.50 Z"></path><path fill="#ffffff" opacity="1.00" d=" M 949.50 510.50 C 964.00 510.49 978.51 510.50 993.01 510.49 C 1001.75 511.12 1010.63 515.07 1015.68 522.46 C 1021.08 529.96 1021.39 540.58 1016.75 548.53 C 1012.30 556.30 1003.75 560.52 995.24 562.21 C 1002.25 575.04 1009.10 587.97 1015.74 601.00 C 1011.90 601.00 1008.06 601.00 1004.23 601.00 C 997.48 588.14 990.82 575.24 983.89 562.48 C 975.92 562.53 967.96 562.49 960.00 562.50 C 960.00 575.33 960.00 588.17 960.00 601.00 C 956.49 601.00 952.98 601.01 949.49 600.98 C 949.52 570.82 949.49 540.66 949.50 510.50 M 960.00 519.50 C 960.00 530.67 960.00 541.83 960.00 553.00 C 970.69 552.97 981.38 553.05 992.07 552.97 C 999.07 552.11 1006.33 548.02 1008.61 540.99 C 1010.96 534.70 1008.07 527.21 1002.51 523.63 C 998.32 520.62 993.05 519.70 988.01 519.49 C 978.67 519.50 969.34 519.50 960.00 519.50 Z"></path><path fill="#ffffff" opacity="1.00" d=" M 485.39 510.50 C 488.83 510.49 492.28 510.54 495.74 510.42 C 504.78 533.20 513.11 556.27 521.88 579.17 C 523.26 582.17 523.74 585.62 525.71 588.32 C 535.24 562.27 545.10 536.33 555.07 510.45 C 558.59 510.53 562.12 510.47 565.66 510.53 C 553.81 540.59 542.57 570.90 530.85 601.01 C 527.22 600.99 523.59 601.01 519.97 600.99 C 508.49 570.81 496.81 540.70 485.39 510.50 Z"></path><path fill="#ffffff" opacity="1.00" d=" M 750.49 600.98 C 750.52 570.82 750.48 540.66 750.50 510.50 C 753.93 510.49 757.37 510.54 760.81 510.44 C 779.06 535.54 797.11 560.80 815.50 585.80 C 815.49 560.70 815.50 535.60 815.50 510.50 C 818.83 510.49 822.16 510.49 825.50 510.50 C 825.52 540.66 825.48 570.82 825.52 600.98 C 822.06 601.01 818.61 600.98 815.16 601.02 C 796.87 575.98 778.82 550.76 760.53 525.72 C 760.46 550.81 760.52 575.91 760.50 601.00 C 757.16 601.00 753.82 601.01 750.49 600.98 Z"></path></g><g id="#175ec8ff"><path fill="#175ec8" opacity="1.00" d=" M 676.83 0.00 L 695.34 0.00 C 714.77 2.24 733.72 9.60 748.77 22.23 C 761.56 32.49 771.20 46.31 777.65 61.30 C 771.81 64.21 765.55 66.14 759.62 68.84 C 750.75 47.59 732.67 30.38 710.75 23.14 C 698.44 19.20 685.16 17.87 672.41 20.32 C 653.25 23.62 635.44 34.21 623.52 49.58 C 612.58 63.37 606.34 80.89 606.41 98.52 C 599.94 98.49 593.48 98.48 587.02 98.53 C 586.81 69.36 600.42 40.57 623.06 22.18 C 638.23 9.56 657.25 2.03 676.83 0.00 Z"></path><path fill="#175ec8" opacity="1.00" d=" M 631.43 57.39 C 641.57 43.70 657.20 34.34 673.94 31.35 C 687.33 29.18 701.39 30.63 713.82 36.23 C 729.65 43.43 742.75 56.77 749.17 72.98 C 743.18 75.44 737.19 77.90 731.13 80.17 C 723.68 61.26 703.49 48.41 683.20 49.77 C 673.39 50.37 663.74 53.91 656.01 60.00 C 644.21 69.03 636.98 83.67 636.90 98.53 C 630.46 98.48 624.03 98.48 617.60 98.53 C 617.57 83.81 622.42 69.06 631.43 57.39 Z"></path></g><g id="#fdd600ff"><path fill="#fdd600" opacity="1.00" d=" M 680.52 65.62 C 696.52 62.65 713.51 73.27 717.88 88.93 C 722.80 104.05 715.06 121.84 700.69 128.59 C 686.84 135.73 668.41 131.40 659.23 118.81 C 649.42 106.33 650.46 86.93 661.61 75.62 C 666.60 70.33 673.34 66.75 680.52 65.62 Z"></path></g><g id="#ed1c24ff"><path fill="#ed1c24" opacity="1.00" d=" M 587.02 98.53 C 593.48 98.48 599.94 98.49 606.41 98.52 C 606.05 118.11 613.82 137.54 626.94 152.00 C 639.14 165.59 656.16 174.63 674.19 177.40 C 665.60 181.54 656.80 185.24 648.12 189.20 C 645.21 188.18 642.31 187.14 639.50 185.90 C 622.60 176.73 608.29 162.78 599.14 145.84 C 591.16 131.42 587.27 114.97 587.02 98.53 Z"></path><path fill="#ed1c24" opacity="1.00" d=" M 617.60 98.53 C 624.03 98.48 630.46 98.48 636.90 98.53 C 636.68 113.94 644.46 129.12 656.92 138.14 C 669.65 147.65 687.15 150.25 702.10 144.87 C 715.25 140.38 725.91 129.91 731.36 117.21 C 737.24 119.60 743.13 121.98 749.03 124.34 C 744.18 136.03 736.10 146.35 725.85 153.79 C 720.22 157.71 714.19 161.46 707.34 162.68 C 705.32 163.44 703.39 164.37 701.39 165.13 C 694.65 166.36 687.78 167.13 680.94 166.56 C 662.01 165.36 643.93 155.61 632.28 140.69 C 622.80 128.79 617.84 113.68 617.60 98.53 Z"></path><path fill="#ed1c24" opacity="1.00" d=" M 718.04 171.43 C 736.68 163.12 751.86 147.53 759.59 128.64 C 765.53 131.00 771.46 133.39 777.39 135.81 C 776.46 137.94 775.55 140.08 774.51 142.15 C 771.37 145.20 767.86 147.83 764.57 150.70 C 759.36 151.31 753.25 149.07 748.89 152.81 C 739.10 159.60 729.33 166.41 719.46 173.07 C 719.11 172.66 718.40 171.84 718.04 171.43 Z"></path></g></svg>